<?xml version="1.0" encoding="utf-8"?>
<!-- Generator: Adobe Illustrator 27.5.0, SVG Export Plug-In . SVG Version: 6.00 Build 0)  -->
<svg version="1.1" id="Capa_1" xmlns="http://www.w3.org/2000/svg" xmlns:xlink="http://www.w3.org/1999/xlink" x="0px" y="0px"
	 viewBox="0 0 2122 2122" style="enable-background:new 0 0 2122 2122;" xml:space="preserve">
<path style="fill:none;" d="M1054.326,796.646c0.495,10.697,0.388,21.047-0.281,31.051c-1.832,27.381-7.972,52.098-17.501,74.248
	c5.609-9.9,10.076-20.505,13.525-31.287c4.608-14.404,7.552-29.19,9.969-44.079c1.687-10.39,3.126-20.829,4.661-31.231
	c4.025-27.273,9.366-54.011,20.715-79.29c0.618-1.376,1.289-2.735,1.931-4.104c10.628-22.635,24.314-44.356,31.033-68.559
	c4.992-17.985,3.088-36.287-0.5-54.328c-0.944,59.721-20.369,91.952-37.528,121.557
	C1065.643,736.002,1052.604,759.46,1054.326,796.646z"/>
<path style="fill:none;" d="M683.169,796.646c-0.293-17.195,2.318-34.649,6.927-52.259c-1.906,5.759-3.664,11.569-5.156,17.464
	c-6.231,24.632-8.477,50.449-4.928,75.685c1.945,13.827,5.763,26.956,11.146,39.456c4.493,10.431,10.059,20.432,16.707,29.964
	c14.326,20.541,30.834,39.382,44.737,60.254c4.199,6.304,8.201,12.843,11.562,19.614c-10.093-38.995-36.984-77.941-57.051-116.024
	C693.849,845.626,683.582,820.83,683.169,796.646z"/>
<path style="fill:none;" d="M1158.348,506.601c3.43-3.539,6.336-7.692,9.256-11.653c5.734-7.78,11.071-15.852,15.997-24.166
	c12.713-21.459,22.598-44.527,29.583-68.452c-20.911,46.802-48.565,89.308-61.245,107.842
	C1154.383,509.72,1157.072,507.918,1158.348,506.601z"/>
<path style="fill:#1E163E;" d="M1245.209,268.103c-6.591-12.36-16.262-22.939-27.105-31.707
	c-5.838-4.721-12.036-8.911-18.375-12.886c-59.526-56.313-173.826-100.289-256.75-94.258c-48.868,3.554-79.906,50.596-90.028,68.534
	c-0.901-4.565-1.352-9.222-1.274-13.894c0.056-3.392-5.214-3.393-5.269,0c-0.075,4.551,0.395,9.056,1.194,13.497
	c-2.179-1.251-4.524-2.21-6.996-2.752c-1.343-0.295-2.914,0.403-3.241,1.84c-0.303,1.332,0.4,2.925,1.84,3.241
	c0.98,0.215,1.945,0.487,2.889,0.831l0.555,0.213c0.035,0.017,0.372,0.156,0.436,0.185c0.456,0.208,0.905,0.43,1.346,0.668
	c0.883,0.475,1.735,1.006,2.55,1.589l0.605,0.448l0.251,0.214l0.94,0.838c-3.215,0.164-20.751,1.66-37.204,13.782
	c-16.321,9.406-27.234,26.946-31.789,45.127c-7.22,28.821-1.938,59.577,0.53,88.693c5.068,59.798,8.668,120.697-3.294,179.94
	c-3.101,15.355-7.236,30.504-12.569,45.206c-15.59,33.171-34.109,66.931-49.559,100.598c-0.182,0.174-0.369,0.332-0.514,0.585
	c-25.361,44.287-44.242,94.291-40.921,146.104c1.203,18.77,5.322,37.271,12.668,54.504c2.375,5.571,5.077,11.013,8.141,16.284
	c12.662,21.783,29.955,40.318,44.477,60.8c13.048,18.404,28.058,39.259,29.412,62.265c-0.138,6.671-0.887,13.337-2.508,19.993
	c103.434,8.541,205.393-28.206,256.023-108.25c27.6-27.391,37.65-66.917,43.837-104.972c0.871-5.36,1.678-10.695,2.438-15.955
	c4.065-28.152,8.005-56.589,18.771-83.121c0.56-1.38,1.181-2.732,1.768-4.1c1.37-3.194,2.792-6.365,4.275-9.508
	c9.464-20.057,20.751-39.276,28.221-60.231c5.346-14.998,6.62-30.495,4.909-46.282c-1.659-15.303-5.509-30.216-8.89-45.2
	c-0.141-1.975-0.309-3.986-0.487-6.014c-0.726,0.099-1.442,0.176-2.136,0.212c-17.453,0.846-31.984-11.493-35.991-36.789
	c-4.383-27.907,9.49-45.725,26.911-46.651c27.561-1.413,24.95,36.281,40.809,42.19c4.143,2.558,10.227,1.388,14.212-1.94
	c3.311-2.765,5.86-6.494,8.469-9.895c2.892-3.767,5.69-7.605,8.391-11.512c10.704-15.481,19.882-32.01,27.441-49.244
	c7.179-16.367,12.885-33.351,17.129-50.692c0.354-1.446,0.7-2.893,1.033-4.344c15.074-23.135,29.129-47.67,31.14-75.761
	C1254.975,295.812,1252.165,281.149,1245.209,268.103z M752.602,967.209c-13.903-20.872-30.411-39.713-44.737-60.254
	c-6.648-9.532-12.214-19.533-16.707-29.964c-5.384-12.5-9.201-25.629-11.146-39.456c-3.549-25.236-1.303-51.053,4.928-75.685
	c1.492-5.896,3.25-11.705,5.156-17.464c-4.609,17.61-7.221,35.064-6.927,52.259c0.413,24.184,10.68,48.98,23.944,74.152
	c20.067,38.084,46.958,77.03,57.051,116.024C760.804,980.053,756.801,973.513,752.602,967.209z M780.855,539.239
	c5.392-24.563,8.182-49.772,9.094-74.823c1.108-30.415-0.384-60.855-2.676-91.181c-1.147-15.186-2.499-30.355-3.828-45.525
	c-1.271-14.513-2.518-29.117-1.503-43.688c0.338-4.849,1.033-9.813,2.096-14.743c-3.447,41.653,12.172,113.367,13.226,191.951
	C797.603,486.4,790.995,512.533,780.855,539.239z M1238.212,348.829c-3.644,7.961-7.927,15.583-12.495,23.038
	c0.077-0.428,0.138-0.859,0.214-1.287c10.119-28.744,16.044-57.456,12.995-81.843c-1.917-15.34-9.453-30.774-21.151-45.686
	c7.595,6.536,14.434,13.882,19.884,22.544c7.695,12.232,11.51,26.061,11.199,40.514
	C1248.541,320.911,1244.344,335.434,1238.212,348.829z"/>
<path style="fill:#F7B8B2;" d="M700.301,1547.983c-9.193-45.821-15.078-95.812-13.986-147.149
	c0.422-19.85,3.54-56.303,7.571-100.869c-39.296-11.773-140.959-85.129-165.851-122.933
	c-20.808,67.073-33.939,138.526-31.422,205.243c5.283,140.003,92.348,275.494,154.257,354.811
	c11.338-23.422,24.998-45.695,41.463-65.375C673.874,1653.922,686.089,1602.579,700.301,1547.983z"/>
<path style="fill:#734D7C;" d="M694.562,1673.702c-0.812-0.588-1.513-1.299-2.23-1.991c-16.465,19.68-30.125,41.954-41.463,65.375
	c-55.268,114.183-55.282,255.536-55.282,255.536h84.836h353.483h353.482c0,0-11.782-254.311-67.554-330.605
	C1271.722,1688.824,734.428,1702.57,694.562,1673.702z"/>
<path style="fill:#F7B8B2;" d="M1624.808,315.517c0,0-16.497-31.073-30.54-53.392l4.588,126.752c0.134,3.715-2.769,6.836-6.484,6.97
	l-79.553,2.879l19.795,35.976c0,0-42.295,239.6-175.311,352.134c32.426,12.424,109.723,126.53,123.814,172.209
	c19.466-17.509,35.73-35.732,46.09-53.801c118.22-206.198,93.171-480.323,93.171-480.323
	C1626.472,394.496,1624.808,315.517,1624.808,315.517z"/>
<path style="fill:#6A6B8D;" d="M1598.856,388.878l-4.588-126.752l-3.601-99.515c-0.135-3.715-3.255-6.618-6.971-6.484
	l-115.679,4.187c-3.715,0.135-6.618,3.255-6.483,6.971l8.188,226.266c0.135,3.715,3.256,6.618,6.971,6.484l36.126-1.308
	l79.553-2.879C1596.087,395.714,1598.99,392.593,1598.856,388.878z M1585.355,371.863l-103.397,3.742
	c-3.203,0.116-5.895-2.387-6.011-5.591l-6.81-188.17c-0.058-1.602,0.539-3.076,1.551-4.163c0.506-0.544,1.115-0.991,1.799-1.31
	c0.684-0.318,1.44-0.508,2.241-0.537l103.397-3.742c3.204-0.116,5.895,2.387,6.011,5.591l6.493,179.402l0,0l0.317,8.768
	C1591.062,369.056,1588.558,371.747,1585.355,371.863z"/>
<path style="fill:#A8A1CF;" d="M1497.828,174.997c-3.802,40.024,6.536,81.775,28.359,115.394
	c17.049,26.267,40.267,47.022,64.442,66.693l-6.493-179.402c-0.116-3.204-2.807-5.707-6.011-5.591l-103.397,3.742
	c-0.801,0.029-1.557,0.219-2.241,0.537c0.684-0.319,1.441-0.508,2.242-0.537L1497.828,174.997z"/>
<path style="fill:#9590C6;" d="M1590.628,357.084c-24.175-19.672-47.392-40.427-64.442-66.693
	c-21.823-33.619-32.161-75.37-28.359-115.394l-23.1,0.836c-0.801,0.029-1.558,0.218-2.242,0.537
	c-0.684,0.319-1.293,0.766-1.799,1.31c-1.012,1.088-1.609,2.561-1.551,4.163l6.81,188.17c0.116,3.204,2.808,5.707,6.011,5.591
	l103.397-3.742c3.203-0.116,5.707-2.807,5.591-6.011L1590.628,357.084L1590.628,357.084z"/>
<path style="fill:#B285BB;" d="M1036.544,901.945c5.609-9.9,10.076-20.505,13.525-31.287c4.608-14.404,7.552-29.19,9.969-44.079
	c-2.031,0.418-4.028,0.787-5.993,1.118C1052.214,855.078,1046.073,879.795,1036.544,901.945z"/>
<path style="fill:#F7B8B2;" d="M1087.345,711.955c10.628-22.635,24.314-44.356,31.033-68.559c4.992-17.985,3.088-36.287-0.5-54.328
	c-0.944,59.721-20.369,91.952-37.528,121.557C1084.406,711.521,1086.833,711.884,1087.345,711.955z"/>
<path style="fill:#F7B8B2;" d="M1218.523,463.245c1.599-25.671,2.546-50.423,3.225-72.612c-4.244,17.34-9.95,34.325-17.129,50.692
	c-7.559,17.234-16.737,33.763-27.441,49.244c-2.701,3.906-5.499,7.745-8.391,11.512c-2.61,3.4-5.158,7.13-8.469,9.895
	c-3.986,3.328-10.069,4.498-14.212,1.94c-15.859-5.909-13.248-43.603-40.809-42.19c-17.422,0.926-31.294,18.744-26.911,46.651
	c4.008,25.296,18.538,37.635,35.991,36.789c0.694-0.036,1.41-0.112,2.136-0.212c0.178,2.028,0.346,4.039,0.487,6.014
	c3.381,14.984,7.232,29.897,8.89,45.2c1.712,15.786,0.438,31.283-4.909,46.282c-7.47,20.955-18.757,40.174-28.221,60.231
	c10.541,1.1,35.029,2.03,55.439-9.484c20.171-11.379,32.905-37.956,47.717-67.384c13.289-26.403,29.484-54.083,33.679-92.102
	C1231.871,523.071,1217.254,483.61,1218.523,463.245z"/>
<path style="fill:#F7B8B2;" d="M1151.938,510.172c2.445-0.452,5.133-2.254,6.409-3.571c3.43-3.539,6.336-7.692,9.256-11.653
	c5.734-7.78,11.071-15.852,15.997-24.166c12.713-21.459,22.598-44.527,29.583-68.452
	C1192.273,449.131,1164.619,491.638,1151.938,510.172z"/>
<path style="fill:#DF8080;" d="M1054.326,796.646c0.495,10.697,0.388,21.047-0.281,31.051c1.965-0.33,3.962-0.7,5.993-1.118
	c1.687-10.39,3.126-20.829,4.661-31.231c4.025-27.273,9.366-54.011,20.715-79.29c0.618-1.376,1.289-2.735,1.931-4.104
	c-0.512-0.071-2.939-0.433-6.995-1.329C1065.643,736.002,1052.604,759.46,1054.326,796.646z"/>
<path style="fill:#DF8080;" d="M1067.946,809.407c-0.76,5.261-1.567,10.596-2.438,15.955c12.777-3.062,25.455-7.628,31.828-12.882
	l-8.851-90.294c-0.587,1.368-1.207,2.72-1.768,4.1C1075.952,752.818,1072.011,781.256,1067.946,809.407z"/>
<path style="fill:#B285BB;" d="M707.866,906.956c14.326,20.541,30.834,39.382,44.737,60.254c4.199,6.304,8.201,12.843,11.562,19.614
	c-10.093-38.995-36.984-77.941-57.051-116.024l-11.751,5c-0.955,0.054-1.909,0.227-2.862,0.604
	c-0.447,0.177-0.895,0.404-1.342,0.589C695.651,887.423,701.218,897.424,707.866,906.956z"/>
<path style="fill:#B285BB;" d="M1481.118,959.045c-14.092-45.679-91.388-159.785-123.814-172.209
	c-3.036-1.163-5.691-1.462-7.851-0.703c-42.964,15.115-99.298,26.077-142.583,33.025l-109.533-6.678
	c-6.374,5.254-19.051,9.82-31.828,12.882c-6.187,38.055-16.237,77.581-43.837,104.972c-50.63,80.044-152.589,116.791-256.023,108.25
	c1.622-6.656,2.37-13.322,2.508-19.993c-1.354-23.006-16.364-43.862-29.412-62.265c-14.523-20.482-31.815-39.018-44.477-60.8
	c-3.064-5.271-5.766-10.713-8.141-16.284c-60.62,29.652-123.554,140.277-163.396,281.713c-1.102,3.912,0.946,9.459,5.303,16.076
	c24.892,37.804,126.556,111.16,165.851,122.933c7.1,2.127,12.225,2.305,14.424-0.169c2.03-2.284,4.479-7.128,7.208-13.83
	c4.645,67.171,7.913,122.107,7.913,143.735c0,31.964-12.142,76.073-23.13,118.281c-14.212,54.596-26.426,105.94-7.969,123.728
	c0.717,0.692,1.418,1.403,2.23,1.991c39.865,28.868,577.16,15.122,625.272-11.684c30.021-16.726-44.272-150.096-45.564-193.165
	c-1.279-42.617-0.005-121.344,2.749-186.953c0,0,39.865-123.032,38.49-151.213c-0.614-12.575-3.815-28.543-8.17-45.209
	c53.976-26.09,124.935-64.915,174.099-108.831C1484.22,974.163,1483.841,967.873,1481.118,959.045z"/>
<path style="fill:#8D6AAC;" d="M715.648,1136.163c0.368-30.547,1.688-61.114,4.352-91.551c0.456-5.22,0.926-10.445,1.545-15.65
	c0.399-3.361-4.874-3.332-5.27,0c-1.848,15.562-2.886,31.248-3.797,46.886c-2.298,39.433-2.796,78.987-1.527,118.467
	c0.641,19.937,1.783,39.856,3.411,59.734c-48.862-16.575-94.534-42.435-133.798-75.92c-11.313-9.648-22.08-19.919-32.28-30.736
	c-2.331-2.472-6.053,1.259-3.726,3.726c36.447,38.652,80.385,70.181,128.692,92.299c13.556,6.206,27.442,11.672,41.584,16.391
	c0.562,6.459,1.163,12.916,1.836,19.365c0.349,3.339,5.622,3.375,5.27,0C716.985,1231.688,715.073,1183.899,715.648,1136.163z"/>
<path style="fill:#DF8080;" d="M1118.444,529.973c3.317-10.79,6.598-23.342,0.065-33.664c-2.656-4.196-6.792-7.397-11.744-8.282
	c-4.811-0.86-9.693,0.189-13.302,3.598c-2.47,2.334,1.261,6.055,3.726,3.726c2.572-2.431,6.3-2.849,9.614-1.912
	c3.79,1.071,6.514,3.944,8.205,7.414c2.321,4.76,2.4,9.933,1.587,15.064c-1.649-3.193-4.681-5.91-8.234-6.674
	c-3.515-0.756-6.941,0.466-9.105,3.34c-2.015,2.674-2.608,6.565-0.519,9.378c0.855,1.151,2.272,1.704,3.606,0.945
	c1.134-0.645,1.792-2.466,0.945-3.605c-0.967-1.301-0.622-2.746,0.446-3.911c1.337-1.459,3.317-1.324,4.96-0.445
	c5.057,2.706,4.873,9.414,4.574,14.326C1113.083,532.322,1117.595,532.732,1118.444,529.973z"/>
<path style="fill:#8D6AAC;" d="M1205.495,903.372c-7.152-16.423-13.714-33.1-19.735-49.971c-1.131-3.171-6.225-1.805-5.081,1.4
	c21.232,59.499,49.435,116.479,84.014,169.355c9.727,14.873,19.958,29.412,30.65,43.606c2.016,2.676,6.594,0.052,4.55-2.66
	C1262.24,1015.118,1230.484,960.75,1205.495,903.372z"/>
<path style="fill:#8D6AAC;" d="M1332.354,803.276c-2.472-2.318-6.206,1.4-3.726,3.726c40.662,38.142,75.046,82.773,101.519,131.84
	c7.397,13.71,14.158,27.755,20.296,42.073c1.332,3.108,5.873,0.427,4.55-2.66c-21.997-51.314-52.275-98.974-89.32-140.744
	C1355.102,825.592,1343.974,814.176,1332.354,803.276z"/>
<path style="fill:#8D6AAC;" d="M1226.11,1350.443c15.623-22.881,31.247-45.762,46.87-68.643c1.917-2.808-2.647-5.447-4.55-2.66
	c-15.623,22.881-31.247,45.762-46.869,68.644C1219.643,1350.591,1224.207,1353.23,1226.11,1350.443z"/>
</svg>
